<?xml version="1.0" encoding="utf-8"?>
<!-- Generator: Adobe Illustrator 26.5.0, SVG Export Plug-In . SVG Version: 6.00 Build 0)  -->
<svg version="1.1" id="Layer_1" xmlns="http://www.w3.org/2000/svg" xmlns:xlink="http://www.w3.org/1999/xlink" x="0px" y="0px"
	 viewBox="0 0 1300.8 519.1" style="enable-background:new 0 0 1300.8 519.1;" xml:space="preserve">
<style type="text/css">
	.st0{fill:#11024D;}
	.st1{fill:#FFFFFF;}
	.st2{fill:url(#SVGID_1_);}
	.st3{fill:#3ECC99;}
	.st4{fill:url(#SVGID_00000143613984557312289620000000116556511990243477_);}
	.st5{fill:#4E37D3;}
</style>
<rect class="st0" width="1300.8" height="519.1"/>
<g>
	<g>
		<path class="st1" d="M1199.7,236.4c3.5,2,6.3,4.9,8.3,8.8c2,3.9,3,8.5,3,14v35.3h-15.2v-33.2c0-4.8-1.2-8.4-3.6-11
			c-2.4-2.6-5.7-3.9-9.8-3.9s-7.5,1.3-9.9,3.9c-2.4,2.6-3.6,6.2-3.6,11v33.2h-15.2v-80.3h15.2v27.7c1.9-2.6,4.6-4.6,7.8-6.1
			c3.3-1.5,6.9-2.2,10.9-2.2C1192.1,233.4,1196.2,234.4,1199.7,236.4L1199.7,236.4z"/>
		<path class="st1" d="M688.4,248.5c2.5-4.6,5.8-8.2,10.2-10.7s9.1-3.8,14.4-3.8s9.7,1.1,13.6,3.4c3.8,2.2,6.7,5.1,8.6,8.5V235h10
			v59.5h-10v-11.1c-2,3.5-4.9,6.4-8.7,8.6s-8.4,3.4-13.5,3.4s-10.1-1.3-14.3-3.9c-4.3-2.6-7.6-6.3-10.1-11
			c-2.5-4.7-3.7-10.1-3.7-16.1S686,253.1,688.4,248.5L688.4,248.5z M732.4,252.9c-1.8-3.3-4.2-5.9-7.3-7.6
			c-3.1-1.8-6.5-2.7-10.2-2.7s-7.1,0.9-10.1,2.6s-5.5,4.3-7.3,7.6c-1.8,3.3-2.7,7.2-2.7,11.7s0.9,8.5,2.7,11.9
			c1.8,3.4,4.2,5.9,7.3,7.7c3,1.8,6.4,2.7,10.1,2.7s7.1-0.9,10.2-2.7s5.5-4.3,7.3-7.7s2.7-7.3,2.7-11.8S734.2,256.2,732.4,252.9
			L732.4,252.9z"/>
		<path class="st1" d="M808.4,240.4c4.5,4.4,6.7,10.7,6.7,19v35.1h-9.8v-33.7c0-5.9-1.5-10.5-4.5-13.6c-3-3.1-7-4.7-12.2-4.7
			s-9.4,1.6-12.4,4.9c-3.1,3.3-4.6,8-4.6,14.2v32.9h-9.9v-59.5h9.9v8.5c2-3,4.6-5.4,8-7.1c3.4-1.7,7.1-2.5,11.1-2.5
			C798.1,233.9,803.9,236,808.4,240.4L808.4,240.4z"/>
		<path class="st1" d="M831.3,248.5c2.5-4.6,5.8-8.2,10.2-10.7s9.1-3.8,14.5-3.8c4.6,0,8.9,1.1,12.9,3.2c4,2.1,7,4.9,9.1,8.4v-31.5
			h10v80.3h-10v-11.2c-2,3.5-4.8,6.5-8.7,8.7s-8.3,3.4-13.5,3.4s-10.1-1.3-14.4-3.9c-4.3-2.6-7.7-6.3-10.2-11
			c-2.5-4.7-3.7-10.1-3.7-16.1S828.8,253.1,831.3,248.5L831.3,248.5z M875.3,252.9c-1.8-3.3-4.2-5.9-7.3-7.6
			c-3.1-1.8-6.5-2.7-10.2-2.7s-7.1,0.9-10.1,2.6s-5.5,4.3-7.3,7.6c-1.8,3.3-2.7,7.2-2.7,11.7s0.9,8.5,2.7,11.9
			c1.8,3.4,4.2,5.9,7.3,7.7c3,1.8,6.4,2.7,10.1,2.7s7.1-0.9,10.2-2.7s5.5-4.3,7.3-7.7s2.7-7.3,2.7-11.8S877.1,256.2,875.3,252.9
			L875.3,252.9z"/>
		<path class="st1" d="M904.7,248.5c2.5-4.6,5.8-8.2,10.2-10.7s9.1-3.8,14.4-3.8s9.7,1.1,13.6,3.4c3.8,2.2,6.7,5.1,8.6,8.5V235h10
			v59.5h-10v-11.1c-2,3.5-4.9,6.4-8.7,8.6s-8.4,3.4-13.5,3.4s-10.1-1.3-14.3-3.9c-4.3-2.6-7.6-6.3-10.1-11
			c-2.5-4.7-3.7-10.1-3.7-16.1S902.3,253.1,904.7,248.5L904.7,248.5z M948.7,252.9c-1.8-3.3-4.2-5.9-7.3-7.6
			c-3.1-1.8-6.5-2.7-10.2-2.7s-7.1,0.9-10.1,2.6s-5.5,4.3-7.3,7.6c-1.8,3.3-2.7,7.2-2.7,11.7s0.9,8.5,2.7,11.9
			c1.8,3.4,4.2,5.9,7.3,7.7c3,1.8,6.4,2.7,10.1,2.7s7.1-0.9,10.2-2.7s5.5-4.3,7.3-7.7s2.7-7.3,2.7-11.8S950.5,256.2,948.7,252.9
			L948.7,252.9z"/>
		<path class="st1" d="M994,227.3v46.1c0,2.3,0.5,3.9,1.7,5c1.1,1,3,1.5,5.6,1.5h8v14.4h-10.8c-14.4,0-21.7-7-21.7-21v-46h17.5
			v-14.1h-17.5v-16.8h0.5c9.3,0,16.8,7.5,16.8,16.8h15.2c0,7.8-6.3,14.1-14.1,14.1L994,227.3L994,227.3z"/>
		<path class="st1" d="M1076.8,268.9h-44c0.4,4.3,1.9,7.8,4.6,10.2s6,3.7,9.9,3.7c5.7,0,9.7-2.4,12.1-7.3h16.4
			c-1.7,5.8-5.1,10.5-10,14.3s-11,5.6-18.1,5.6c-5.8,0-11-1.3-15.6-3.9s-8.2-6.2-10.8-10.9s-3.8-10.1-3.8-16.3s1.3-11.7,3.8-16.4
			c2.5-4.7,6.1-8.3,10.6-10.9c4.6-2.5,9.8-3.8,15.7-3.8s10.8,1.2,15.4,3.7s8,6,10.5,10.5c2.5,4.5,3.8,9.7,3.8,15.6
			C1077.2,265.2,1077.1,267.2,1076.8,268.9L1076.8,268.9z M1061.5,258.7c-0.1-3.9-1.5-7-4.2-9.4s-6.1-3.5-10.1-3.5
			c-3.8,0-6.9,1.1-9.5,3.4s-4.2,5.4-4.7,9.5H1061.5L1061.5,258.7z"/>
		<path class="st1" d="M1088.2,248c2.5-4.7,6-8.3,10.5-10.9s9.6-3.9,15.4-3.9c7.4,0,13.6,1.9,18.5,5.6s8.2,9,9.8,15.7h-16.4
			c-0.9-2.6-2.3-4.6-4.4-6.1c-2.1-1.5-4.6-2.2-7.7-2.2c-4.3,0-7.8,1.6-10.3,4.7c-2.5,3.1-3.8,7.6-3.8,13.4s1.3,10.1,3.8,13.3
			s6,4.7,10.3,4.7c6.2,0,10.2-2.8,12.1-8.2h16.4c-1.7,6.5-5,11.7-9.9,15.5s-11.1,5.8-18.5,5.8c-5.8,0-10.9-1.3-15.4-3.9
			s-8-6.2-10.5-10.9c-2.5-4.7-3.8-10.1-3.8-16.3S1085.7,252.7,1088.2,248L1088.2,248z"/>
	</g>
	<path class="st1" d="M629.9,237.4c3.9-2.3,8.4-3.4,13.5-3.4s10.1,1.3,14.4,3.8s7.7,6.1,10.2,10.7c2.5,4.6,3.7,9.9,3.7,16
		s-1.2,11.4-3.7,16.1c-2.5,4.7-5.8,8.4-10.2,11c-4.3,2.6-9.1,3.9-14.4,3.9s-9.5-1.1-13.4-3.4s-6.8-5.1-8.8-8.5v39.2h-9.9V235h9.9v11
		C623.1,242.5,626,239.7,629.9,237.4L629.9,237.4z M658.8,252.8c-1.8-3.3-4.2-5.9-7.3-7.6s-6.5-2.6-10.2-2.6s-7,0.9-10,2.7
		c-3.1,1.8-5.5,4.3-7.4,7.7c-1.8,3.4-2.8,7.3-2.8,11.7s0.9,8.4,2.8,11.8c1.8,3.4,4.3,5.9,7.4,7.7c3.1,1.8,6.4,2.7,10,2.7
		s7.1-0.9,10.2-2.7s5.5-4.3,7.3-7.7s2.7-7.3,2.7-11.9S660.6,256.1,658.8,252.8L658.8,252.8z"/>
</g>
<linearGradient id="SVGID_1_" gradientUnits="userSpaceOnUse" x1="436.905" y1="426.4498" x2="436.905" y2="97.0298" gradientTransform="matrix(1 0 0 -1 0 519.8898)">
	<stop  offset="0" style="stop-color:#4E37D3"/>
	<stop  offset="1" style="stop-color:#3ECC99"/>
</linearGradient>
<path class="st2" d="M345.9,439.5c-8.9,0-16.1-7.2-16.1-16.1s7.2-16.1,16.1-16.1c38.9,0,77.1-16.1,104.8-44.3
	c27.9-28.3,42.9-65.4,42.4-104.6c-0.1-9.7-1.2-19.4-3.2-28.8c-1.2-5.7,0.8-11.6,5.2-15.5c11-9.6,17.4-23.5,17.4-38.1
	c0-27.8-22.6-50.5-50.5-50.5c-8.9,0-17.7,2.4-25.4,6.9c-5,2.9-11.3,2.9-16.3-0.1c-22.6-13.4-48.4-20.4-74.8-20.4
	c-8.9,0-16.1-7.2-16.1-16.1s7.2-16.1,16.1-16.1c29.2,0,57.8,7.1,83.4,20.6c10.4-4.6,21.7-6.9,33.1-6.9c45.6,0,82.7,37.1,82.7,82.7
	c0,20.7-7.8,40.6-21.6,55.7c1.4,8.6,2.1,17.4,2.3,26.2c0.7,47.9-17.6,93.2-51.6,127.7C439.8,419.8,393.3,439.5,345.9,439.5
	L345.9,439.5z"/>
<path class="st3" d="M410.2,251.5L410.2,251.5l-28.3-28.7l0,0c-3.1-3.8-7.8-6.3-13.1-6.3c-9.3,0-16.9,7.6-16.9,16.9
	c0,3.1,0.9,6.1,2.4,8.6c0.1,0.2,0.3,0.4,0.4,0.6l0,0l20.1,36.8l0,0c3.8,7.3,11.5,12.3,20.4,12.3c12.7,0,23-10.3,23-23
	C418,261.9,415,255.7,410.2,251.5L410.2,251.5z"/>
<linearGradient id="SVGID_00000121986620881557230490000002019512575760849062_" gradientUnits="userSpaceOnUse" x1="197.535" y1="97.2598" x2="197.535" y2="426.4798" gradientTransform="matrix(1 0 0 -1 0 519.8898)">
	<stop  offset="0" style="stop-color:#4E37D3"/>
	<stop  offset="1" style="stop-color:#3ECC99"/>
</linearGradient>
<path style="fill:url(#SVGID_00000121986620881557230490000002019512575760849062_);" d="M288.6,439.5c8.9,0,16.1-7.2,16.1-16.1
	s-7.2-16.1-16.1-16.1c-38.9,0-77.1-16.1-104.8-44.3c-27.9-28.3-42.9-65.4-42.4-104.6c0.1-9.7,1.2-19.4,3.2-28.8
	c1.2-5.7-0.8-11.6-5.2-15.5c-11-9.6-17.4-23.5-17.4-38.1c0-27.8,22.7-50.5,50.5-50.5c8.9,0,17.7,2.4,25.4,6.9
	c5.1,2.9,11.3,2.9,16.3-0.1c22.6-13.4,48.4-20.4,74.8-20.4c8.9,0,16.1-7.2,16.1-16.1s-7.2-16.1-16.1-16.1
	c-29.2,0-57.8,7.1-83.4,20.6c-10.4-4.6-21.7-6.9-33.1-6.9c-45.6,0-82.7,37.1-82.7,82.7c0,20.7,7.8,40.6,21.6,55.7
	c-1.4,8.6-2.1,17.4-2.3,26.2c-0.7,47.9,17.7,93.2,51.6,127.7C194.6,419.8,241.2,439.5,288.6,439.5L288.6,439.5z"/>
<path class="st5" d="M224.2,251.5L224.2,251.5l28.3-28.7l0,0c3.1-3.8,7.8-6.3,13.1-6.3c9.3,0,16.9,7.6,16.9,16.9
	c0,3.1-0.9,6.1-2.4,8.6c-0.1,0.2-0.3,0.4-0.4,0.6l0,0l-20.1,36.8l0,0c-3.8,7.3-11.5,12.3-20.4,12.3c-12.7,0-23-10.3-23-23
	C216.4,261.9,219.5,255.7,224.2,251.5L224.2,251.5z"/>
</svg>
