<?xml version="1.0" encoding="UTF-8"?><svg id="Layer_1" xmlns="http://www.w3.org/2000/svg" xmlns:xlink="http://www.w3.org/1999/xlink" viewBox="0 0 1000 1000"><defs><style>.cls-1{fill:url(#linear-gradient-2);}.cls-2{fill:#11024d;}.cls-3{fill:#4e37d3;}.cls-4{fill:#3ecc99;}.cls-5{fill:url(#linear-gradient);}</style><linearGradient id="linear-gradient" x1="650.71" y1="159.09" x2="650.71" y2="573.86" gradientTransform="matrix(1, 0, 0, 1, 0, 0)" gradientUnits="userSpaceOnUse"><stop offset="0" stop-color="#4e37d3"/><stop offset="1" stop-color="#3ecc99"/></linearGradient><linearGradient id="linear-gradient-2" x1="349.29" y1="573.57" x2="349.29" y2="159.06" xlink:href="#linear-gradient"/></defs><g><g><path class="cls-2" d="M863.34,749.66c4.46,2.51,7.95,6.2,10.46,11.07,2.51,4.88,3.76,10.73,3.76,17.57v44.43h-19.14v-41.83c0-6.01-1.5-10.64-4.51-13.88-3.01-3.23-7.11-4.85-12.3-4.85s-9.46,1.62-12.51,4.85c-3.05,3.24-4.58,7.86-4.58,13.88v41.83h-19.14v-101.16h19.14v34.86c2.46-3.28,5.74-5.85,9.84-7.72,4.1-1.87,8.66-2.8,13.67-2.8,5.74,0,10.84,1.25,15.31,3.76Z"/><path class="cls-2" d="M219.63,764.83c3.1-5.79,7.36-10.27,12.78-13.46,5.42-3.19,11.46-4.79,18.11-4.79s12.26,1.41,17.09,4.24c4.83,2.83,8.43,6.38,10.8,10.66v-13.67h12.58v74.91h-12.58v-13.94c-2.46,4.37-6.13,8-11,10.87-4.88,2.87-10.55,4.31-17.02,4.31s-12.67-1.64-18.04-4.92c-5.38-3.28-9.62-7.88-12.71-13.81-3.1-5.92-4.65-12.67-4.65-20.23s1.55-14.38,4.65-20.16Zm55.36,5.54c-2.28-4.19-5.36-7.4-9.23-9.64-3.87-2.23-8.13-3.35-12.78-3.35s-8.89,1.09-12.71,3.28c-3.83,2.19-6.88,5.38-9.16,9.57-2.28,4.19-3.42,9.11-3.42,14.76s1.14,10.73,3.42,14.97c2.28,4.24,5.33,7.47,9.16,9.71,3.83,2.23,8.07,3.35,12.71,3.35s8.91-1.11,12.78-3.35c3.87-2.23,6.95-5.47,9.23-9.71,2.28-4.24,3.42-9.18,3.42-14.83s-1.14-10.57-3.42-14.76Z"/><path class="cls-2" d="M370.69,754.71c5.65,5.52,8.48,13.46,8.48,23.85v44.16h-12.3v-42.38c0-7.47-1.87-13.19-5.6-17.16-3.74-3.96-8.84-5.95-15.31-5.95s-11.78,2.05-15.65,6.15c-3.87,4.1-5.81,10.07-5.81,17.91v41.42h-12.44v-74.91h12.44v10.66c2.46-3.83,5.81-6.79,10.05-8.89,4.24-2.09,8.91-3.14,14.01-3.14,9.11,0,16.49,2.76,22.15,8.27Z"/><path class="cls-2" d="M399.53,764.83c3.1-5.79,7.36-10.27,12.78-13.46,5.42-3.19,11.51-4.79,18.25-4.79,5.83,0,11.25,1.35,16.27,4.03,5.01,2.69,8.84,6.22,11.48,10.6v-39.64h12.58v101.16h-12.58v-14.08c-2.46,4.47-6.11,8.13-10.94,11.01-4.83,2.87-10.48,4.31-16.95,4.31s-12.69-1.64-18.11-4.92c-5.42-3.28-9.68-7.88-12.78-13.81-3.1-5.92-4.65-12.67-4.65-20.23s1.55-14.38,4.65-20.16Zm55.36,5.54c-2.28-4.19-5.36-7.4-9.23-9.64-3.87-2.23-8.13-3.35-12.78-3.35s-8.89,1.09-12.71,3.28c-3.83,2.19-6.88,5.38-9.16,9.57-2.28,4.19-3.42,9.11-3.42,14.76s1.14,10.73,3.42,14.97c2.28,4.24,5.33,7.47,9.16,9.71,3.83,2.23,8.07,3.35,12.71,3.35s8.91-1.11,12.78-3.35c3.87-2.23,6.95-5.47,9.23-9.71,2.28-4.24,3.42-9.18,3.42-14.83s-1.14-10.57-3.42-14.76Z"/><path class="cls-2" d="M491.95,764.83c3.1-5.79,7.36-10.27,12.78-13.46,5.42-3.19,11.46-4.79,18.11-4.79s12.26,1.41,17.09,4.24c4.83,2.83,8.43,6.38,10.8,10.66v-13.67h12.58v74.91h-12.58v-13.94c-2.46,4.37-6.13,8-11.01,10.87-4.88,2.87-10.55,4.31-17.02,4.31s-12.67-1.64-18.04-4.92c-5.38-3.28-9.62-7.88-12.71-13.81-3.1-5.92-4.65-12.67-4.65-20.23s1.55-14.38,4.65-20.16Zm55.36,5.54c-2.28-4.19-5.36-7.4-9.23-9.64-3.87-2.23-8.13-3.35-12.78-3.35s-8.89,1.09-12.71,3.28c-3.83,2.19-6.88,5.38-9.16,9.57-2.28,4.19-3.42,9.11-3.42,14.76s1.14,10.73,3.42,14.97c2.28,4.24,5.33,7.47,9.16,9.71,3.83,2.23,8.07,3.35,12.71,3.35s8.91-1.11,12.78-3.35c3.87-2.23,6.95-5.47,9.23-9.71,2.28-4.24,3.42-9.18,3.42-14.83s-1.14-10.57-3.42-14.76Z"/><path class="cls-2" d="M604.32,738.15v58.06c0,2.88,.69,4.96,2.08,6.24,1.39,1.29,3.72,1.93,7.01,1.93h10.02v18.19h-13.56c-18.19,0-27.28-8.83-27.28-26.51v-57.9h22.05v-17.72h-22.05v-21.12h.61c11.66,0,21.12,9.45,21.12,21.12h19.11c0,9.79-7.93,17.72-17.72,17.72h-1.39Z"/><path class="cls-2" d="M708.59,790.6h-55.36c.45,5.47,2.37,9.75,5.74,12.85,3.37,3.1,7.52,4.65,12.44,4.65,7.11,0,12.17-3.05,15.18-9.16h20.64c-2.19,7.29-6.38,13.28-12.58,17.98-6.2,4.7-13.81,7.04-22.83,7.04-7.29,0-13.83-1.62-19.62-4.85-5.79-3.23-10.3-7.81-13.53-13.74-3.24-5.92-4.85-12.76-4.85-20.51s1.59-14.72,4.78-20.64c3.19-5.92,7.66-10.48,13.4-13.67,5.74-3.19,12.35-4.79,19.82-4.79s13.65,1.55,19.34,4.65c5.69,3.1,10.12,7.5,13.26,13.19,3.14,5.7,4.72,12.23,4.72,19.62,0,2.73-.18,5.19-.55,7.38Zm-19.27-12.85c-.09-4.92-1.87-8.86-5.33-11.82-3.46-2.96-7.7-4.44-12.71-4.44-4.74,0-8.73,1.43-11.96,4.31-3.24,2.87-5.22,6.86-5.95,11.96h35.95Z"/><path class="cls-2" d="M722.95,764.28c3.19-5.88,7.61-10.43,13.26-13.67,5.65-3.23,12.12-4.85,19.41-4.85,9.38,0,17.15,2.35,23.31,7.04,6.15,4.7,10.27,11.28,12.37,19.75h-20.64c-1.09-3.28-2.94-5.85-5.54-7.72-2.6-1.87-5.81-2.8-9.64-2.8-5.47,0-9.8,1.98-12.99,5.95-3.19,3.96-4.79,9.59-4.79,16.88s1.59,12.78,4.79,16.75c3.19,3.96,7.52,5.95,12.99,5.95,7.75,0,12.8-3.46,15.18-10.39h20.64c-2.1,8.2-6.24,14.72-12.44,19.55-6.2,4.83-13.94,7.25-23.24,7.25-7.29,0-13.76-1.62-19.41-4.85-5.65-3.23-10.07-7.79-13.26-13.67-3.19-5.88-4.78-12.74-4.78-20.58s1.59-14.69,4.78-20.57Z"/></g><path class="cls-2" d="M145.89,750.89c4.87-2.87,10.55-4.31,17.02-4.31s12.69,1.6,18.11,4.79c5.42,3.19,9.68,7.68,12.78,13.46,3.1,5.79,4.65,12.51,4.65,20.16s-1.55,14.31-4.65,20.23c-3.1,5.92-7.36,10.53-12.78,13.81-5.42,3.28-11.46,4.92-18.11,4.92s-12.01-1.44-16.88-4.31c-4.88-2.87-8.59-6.45-11.14-10.73v49.35h-12.44v-110.46h12.44v13.81c2.46-4.28,6.13-7.86,11.01-10.73Zm36.43,19.34c-2.28-4.19-5.36-7.38-9.23-9.57-3.87-2.19-8.13-3.28-12.78-3.28s-8.77,1.12-12.64,3.35c-3.87,2.23-6.97,5.47-9.3,9.71-2.32,4.24-3.49,9.14-3.49,14.69s1.16,10.6,3.49,14.83c2.32,4.24,5.42,7.47,9.3,9.71,3.87,2.23,8.09,3.35,12.64,3.35s8.91-1.11,12.78-3.35c3.87-2.23,6.95-5.47,9.23-9.71,2.28-4.24,3.42-9.23,3.42-14.97s-1.14-10.57-3.42-14.76Z"/></g><path class="cls-5" d="M536.07,594.77c-11.2,0-20.27-9.08-20.27-20.27s9.08-20.27,20.27-20.27c48.92,0,97.02-20.33,131.96-55.77,35.1-35.6,54.04-82.38,53.34-131.73-.17-12.18-1.53-24.37-4.04-36.25-1.52-7.2,.98-14.65,6.53-19.48,13.9-12.1,21.87-29.58,21.87-47.95,0-35.05-28.52-63.56-63.57-63.56-11.24,0-22.29,2.98-31.96,8.63-6.36,3.71-14.23,3.68-20.56-.07-28.4-16.85-60.98-25.75-94.23-25.75-11.2,0-20.27-9.08-20.27-20.27s9.08-20.27,20.27-20.27c36.73,0,72.81,8.93,105.05,25.91,13.1-5.73,27.31-8.72,41.7-8.72,57.41,0,104.11,46.7,104.11,104.11,0,26.09-9.8,51.07-27.22,70.15,1.74,10.89,2.7,21.93,2.86,32.95,.86,60.28-22.23,117.38-65,160.77-42.51,43.12-101.13,67.85-160.84,67.85Z"/><path class="cls-4" d="M617.08,358.09l.02-.02-35.69-36.17h0c-3.89-4.83-9.85-7.93-16.55-7.93-11.73,0-21.24,9.51-21.24,21.24,0,3.95,1.08,7.64,2.95,10.81,.16,.26,.35,.5,.52,.76l-.03,.02,25.27,46.39h.01c4.84,9.21,14.49,15.51,25.63,15.51,15.98,0,28.94-12.95,28.94-28.94,0-8.64-3.81-16.38-9.82-21.68Z"/><path class="cls-1" d="M463.93,594.77c11.2,0,20.27-9.08,20.27-20.27,0-11.2-9.08-20.27-20.27-20.27-48.92,0-97.02-20.33-131.96-55.77-35.1-35.6-54.04-82.38-53.34-131.73,.17-12.18,1.53-24.37,4.04-36.25,1.52-7.2-.98-14.65-6.53-19.48-13.9-12.1-21.87-29.58-21.87-47.95,0-35.05,28.52-63.56,63.57-63.56,11.24,0,22.29,2.98,31.96,8.63,6.36,3.71,14.23,3.68,20.56-.07,28.4-16.85,60.98-25.75,94.23-25.75,11.2,0,20.27-9.08,20.27-20.27,0-11.2-9.08-20.27-20.27-20.27-36.73,0-72.81,8.93-105.05,25.91-13.1-5.73-27.31-8.72-41.7-8.72-57.41,0-104.11,46.7-104.11,104.11,0,26.09,9.8,51.07,27.22,70.15-1.74,10.89-2.7,21.93-2.86,32.95-.86,60.28,22.23,117.38,65,160.77,42.51,43.12,101.13,67.85,160.84,67.85Z"/><path class="cls-3" d="M382.92,358.09l-.02-.02,35.69-36.17h0c3.89-4.83,9.85-7.93,16.55-7.93,11.73,0,21.24,9.51,21.24,21.24,0,3.95-1.08,7.64-2.95,10.81-.16,.26-.35,.5-.52,.76l.03,.02-25.27,46.39h-.01c-4.84,9.21-14.49,15.51-25.63,15.51-15.98,0-28.94-12.95-28.94-28.94,0-8.64,3.81-16.38,9.82-21.68Z"/></svg>