<?xml version="1.0" encoding="UTF-8"?><svg id="Layer_1" xmlns="http://www.w3.org/2000/svg" xmlns:xlink="http://www.w3.org/1999/xlink" viewBox="0 0 1300.83 519.11"><defs><style>.cls-1{fill:url(#linear-gradient-2);}.cls-2{fill:#11024d;}.cls-3{fill:#4e37d3;}.cls-4{fill:#3ecc99;}.cls-5{fill:url(#linear-gradient);}</style><linearGradient id="linear-gradient" x1="436.91" y1="93.44" x2="436.91" y2="422.86" gradientTransform="matrix(1, 0, 0, 1, 0, 0)" gradientUnits="userSpaceOnUse"><stop offset="0" stop-color="#4e37d3"/><stop offset="1" stop-color="#3ecc99"/></linearGradient><linearGradient id="linear-gradient-2" x1="197.52" y1="422.63" x2="197.52" y2="93.41" xlink:href="#linear-gradient"/></defs><g><g><path class="cls-2" d="M1199.69,236.42c3.54,1.99,6.31,4.92,8.31,8.79,1.99,3.87,2.99,8.52,2.99,13.95v35.29h-15.2v-33.22c0-4.78-1.2-8.45-3.58-11.02-2.39-2.57-5.65-3.85-9.77-3.85s-7.51,1.29-9.93,3.85c-2.43,2.57-3.64,6.24-3.64,11.02v33.22h-15.2v-80.34h15.2v27.69c1.95-2.61,4.56-4.65,7.82-6.13,3.26-1.48,6.88-2.23,10.86-2.23,4.56,0,8.61,1,12.16,2.99Z"/><path class="cls-2" d="M688.44,248.47c2.46-4.6,5.84-8.16,10.15-10.69,4.31-2.53,9.1-3.8,14.39-3.8s9.73,1.12,13.57,3.37c3.84,2.24,6.69,5.07,8.58,8.47v-10.86h9.99v59.5h-9.99v-11.07c-1.95,3.47-4.87,6.35-8.74,8.63-3.87,2.28-8.38,3.42-13.52,3.42s-10.06-1.3-14.33-3.91c-4.27-2.61-7.64-6.26-10.1-10.97-2.46-4.7-3.69-10.06-3.69-16.07s1.23-11.42,3.69-16.01Zm43.97,4.4c-1.81-3.33-4.25-5.88-7.33-7.65-3.08-1.77-6.46-2.66-10.15-2.66s-7.06,.87-10.1,2.61-5.47,4.27-7.27,7.6c-1.81,3.33-2.71,7.24-2.71,11.73s.9,8.52,2.71,11.89c1.81,3.37,4.23,5.93,7.27,7.71,3.04,1.77,6.41,2.66,10.1,2.66s7.07-.89,10.15-2.66c3.08-1.77,5.52-4.34,7.33-7.71,1.81-3.37,2.71-7.29,2.71-11.78s-.91-8.4-2.71-11.73Z"/><path class="cls-2" d="M808.41,240.43c4.49,4.38,6.73,10.69,6.73,18.95v35.07h-9.77v-33.66c0-5.93-1.48-10.48-4.45-13.63-2.97-3.15-7.02-4.72-12.16-4.72s-9.36,1.63-12.43,4.89c-3.08,3.26-4.61,8-4.61,14.22v32.9h-9.88v-59.5h9.88v8.47c1.95-3.04,4.61-5.39,7.98-7.06,3.37-1.66,7.07-2.5,11.13-2.5,7.24,0,13.1,2.19,17.59,6.57Z"/><path class="cls-2" d="M831.32,248.47c2.46-4.6,5.84-8.16,10.15-10.69,4.31-2.53,9.14-3.8,14.49-3.8,4.63,0,8.94,1.07,12.92,3.2,3.98,2.14,7.02,4.94,9.12,8.41v-31.49h9.99v80.34h-9.99v-11.18c-1.95,3.55-4.85,6.46-8.69,8.74-3.84,2.28-8.32,3.42-13.46,3.42s-10.08-1.3-14.39-3.91c-4.31-2.61-7.69-6.26-10.15-10.97-2.46-4.7-3.69-10.06-3.69-16.07s1.23-11.42,3.69-16.01Zm43.97,4.4c-1.81-3.33-4.25-5.88-7.33-7.65-3.08-1.77-6.46-2.66-10.15-2.66s-7.06,.87-10.1,2.61-5.47,4.27-7.27,7.6c-1.81,3.33-2.72,7.24-2.72,11.73s.9,8.52,2.72,11.89c1.81,3.37,4.23,5.93,7.27,7.71,3.04,1.77,6.41,2.66,10.1,2.66s7.07-.89,10.15-2.66c3.08-1.77,5.52-4.34,7.33-7.71,1.81-3.37,2.72-7.29,2.72-11.78s-.91-8.4-2.72-11.73Z"/><path class="cls-2" d="M904.72,248.47c2.46-4.6,5.84-8.16,10.15-10.69,4.31-2.53,9.1-3.8,14.39-3.8s9.73,1.12,13.57,3.37c3.84,2.24,6.69,5.07,8.58,8.47v-10.86h9.99v59.5h-9.99v-11.07c-1.95,3.47-4.87,6.35-8.74,8.63-3.87,2.28-8.38,3.42-13.52,3.42s-10.06-1.3-14.33-3.91c-4.27-2.61-7.64-6.26-10.1-10.97-2.46-4.7-3.69-10.06-3.69-16.07s1.23-11.42,3.69-16.01Zm43.97,4.4c-1.81-3.33-4.25-5.88-7.33-7.65-3.08-1.77-6.46-2.66-10.15-2.66s-7.06,.87-10.1,2.61c-3.04,1.74-5.47,4.27-7.27,7.6-1.81,3.33-2.72,7.24-2.72,11.73s.9,8.52,2.72,11.89c1.81,3.37,4.23,5.93,7.27,7.71,3.04,1.77,6.41,2.66,10.1,2.66s7.07-.89,10.15-2.66c3.08-1.77,5.52-4.34,7.33-7.71,1.81-3.37,2.72-7.29,2.72-11.78s-.91-8.4-2.72-11.73Z"/><path class="cls-2" d="M993.97,227.28v46.11c0,2.29,.55,3.94,1.65,4.96,1.1,1.02,2.96,1.53,5.57,1.53h7.96v14.44h-10.77c-14.44,0-21.67-7.02-21.67-21.05v-45.99h17.51v-14.08h-17.51v-16.77h.49c9.26,0,16.77,7.51,16.77,16.77h15.18c0,7.77-6.3,14.08-14.08,14.08h-1.1Z"/><path class="cls-2" d="M1076.78,268.93h-43.97c.36,4.34,1.88,7.75,4.56,10.21,2.68,2.46,5.97,3.69,9.88,3.69,5.65,0,9.66-2.42,12.05-7.27h16.39c-1.74,5.79-5.07,10.55-9.99,14.28-4.92,3.73-10.97,5.59-18.13,5.59-5.79,0-10.98-1.28-15.58-3.85-4.6-2.57-8.18-6.21-10.75-10.91-2.57-4.7-3.85-10.13-3.85-16.29s1.27-11.69,3.8-16.39c2.53-4.7,6.08-8.32,10.64-10.86,4.56-2.53,9.81-3.8,15.74-3.8s10.84,1.23,15.36,3.69c4.52,2.46,8.03,5.96,10.53,10.48,2.5,4.52,3.75,9.72,3.75,15.58,0,2.17-.15,4.13-.43,5.86Zm-15.31-10.21c-.07-3.91-1.49-7.04-4.24-9.39-2.75-2.35-6.12-3.53-10.1-3.53-3.76,0-6.93,1.14-9.5,3.42-2.57,2.28-4.15,5.45-4.72,9.5h28.56Z"/><path class="cls-2" d="M1088.18,248.03c2.53-4.67,6.04-8.29,10.53-10.86,4.49-2.57,9.62-3.85,15.42-3.85,7.45,0,13.62,1.86,18.51,5.59,4.89,3.73,8.16,8.96,9.83,15.69h-16.39c-.87-2.61-2.33-4.65-4.4-6.13-2.06-1.48-4.61-2.23-7.65-2.23-4.34,0-7.78,1.57-10.31,4.72-2.54,3.15-3.8,7.62-3.8,13.41s1.27,10.15,3.8,13.3c2.53,3.15,5.97,4.72,10.31,4.72,6.15,0,10.17-2.75,12.05-8.25h16.39c-1.67,6.51-4.96,11.69-9.88,15.53-4.92,3.84-11.07,5.76-18.46,5.76-5.79,0-10.93-1.28-15.42-3.85-4.49-2.57-8-6.19-10.53-10.86-2.53-4.67-3.8-10.11-3.8-16.34s1.27-11.67,3.8-16.34Z"/></g><path class="cls-2" d="M629.87,237.39c3.87-2.28,8.38-3.42,13.52-3.42s10.08,1.27,14.39,3.8c4.31,2.53,7.69,6.1,10.15,10.69,2.46,4.6,3.69,9.93,3.69,16.01s-1.23,11.37-3.69,16.07c-2.46,4.71-5.85,8.36-10.15,10.97-4.31,2.61-9.1,3.91-14.39,3.91s-9.54-1.14-13.41-3.42c-3.87-2.28-6.82-5.12-8.85-8.52v39.2h-9.88v-87.73h9.88v10.97c1.95-3.4,4.87-6.24,8.74-8.52Zm28.93,15.36c-1.81-3.33-4.25-5.86-7.33-7.6-3.08-1.74-6.46-2.61-10.15-2.61s-6.97,.89-10.04,2.66c-3.08,1.77-5.54,4.34-7.38,7.71-1.85,3.37-2.77,7.26-2.77,11.67s.92,8.41,2.77,11.78c1.85,3.37,4.31,5.93,7.38,7.71,3.08,1.77,6.42,2.66,10.04,2.66s7.07-.89,10.15-2.66c3.08-1.77,5.52-4.34,7.33-7.71,1.81-3.37,2.71-7.33,2.71-11.89s-.91-8.4-2.71-11.73Z"/></g><path class="cls-5" d="M345.87,439.46c-8.89,0-16.1-7.21-16.1-16.1s7.21-16.1,16.1-16.1c38.85,0,77.06-16.15,104.81-44.3,27.88-28.28,42.92-65.43,42.36-104.62-.14-9.67-1.22-19.36-3.21-28.79-1.21-5.72,.78-11.64,5.18-15.47,11.04-9.61,17.37-23.49,17.37-38.09,0-27.84-22.65-50.48-50.49-50.48-8.92,0-17.7,2.37-25.39,6.86-5.05,2.95-11.3,2.92-16.33-.06-22.56-13.38-48.43-20.45-74.84-20.45-8.89,0-16.1-7.21-16.1-16.1s7.21-16.1,16.1-16.1c29.17,0,57.83,7.09,83.44,20.58,10.41-4.55,21.69-6.93,33.12-6.93,45.59,0,82.69,37.09,82.69,82.69,0,20.72-7.78,40.56-21.62,55.72,1.38,8.65,2.14,17.42,2.27,26.17,.68,47.88-17.65,93.23-51.63,127.69-33.76,34.25-80.32,53.89-127.74,53.89Z"/><path class="cls-4" d="M410.21,251.49h.02l-28.35-28.74h0c-3.09-3.84-7.83-6.3-13.14-6.3-9.32,0-16.87,7.55-16.87,16.87,0,3.13,.86,6.07,2.35,8.58,.12,.21,.28,.4,.41,.6l-.02,.02,20.07,36.85h0c3.84,7.32,11.51,12.32,20.35,12.32,12.69,0,22.98-10.29,22.98-22.98,0-6.86-3.03-13.01-7.8-17.22Z"/><path class="cls-1" d="M288.57,439.46c8.89,0,16.1-7.21,16.1-16.1,0-8.89-7.21-16.1-16.1-16.1-38.85,0-77.06-16.15-104.81-44.3-27.88-28.28-42.92-65.43-42.36-104.62,.14-9.67,1.22-19.36,3.21-28.79,1.21-5.72-.78-11.64-5.18-15.47-11.04-9.61-17.37-23.49-17.37-38.09,0-27.84,22.65-50.48,50.49-50.48,8.92,0,17.7,2.37,25.39,6.86,5.05,2.95,11.3,2.92,16.33-.06,22.56-13.38,48.43-20.45,74.84-20.45,8.89,0,16.1-7.21,16.1-16.1,0-8.89-7.21-16.1-16.1-16.1-29.17,0-57.83,7.09-83.44,20.58-10.41-4.55-21.69-6.93-33.12-6.93-45.59,0-82.69,37.09-82.69,82.69,0,20.72,7.78,40.56,21.62,55.72-1.38,8.65-2.14,17.42-2.27,26.17-.68,47.88,17.65,93.23,51.63,127.69,33.76,34.25,80.32,53.89,127.74,53.89Z"/><path class="cls-3" d="M224.23,251.49h-.02l28.35-28.74h0c3.09-3.84,7.83-6.3,13.14-6.3,9.32,0,16.87,7.55,16.87,16.87,0,3.13-.86,6.07-2.35,8.58-.12,.21-.28,.4-.41,.6l.02,.02-20.07,36.85h0c-3.84,7.32-11.51,12.32-20.35,12.32-12.69,0-22.98-10.29-22.98-22.98,0-6.86,3.03-13.01,7.8-17.22Z"/></svg>